<?xml version="1.0" encoding="UTF-8" standalone="no"?><!DOCTYPE svg PUBLIC "-//W3C//DTD SVG 1.1//EN" "http://www.w3.org/Graphics/SVG/1.1/DTD/svg11.dtd"><svg width="100%" height="100%" viewBox="0 0 318 318" version="1.1" xmlns="http://www.w3.org/2000/svg" xmlns:xlink="http://www.w3.org/1999/xlink" xml:space="preserve" xmlns:serif="http://www.serif.com/" style="fill-rule:evenodd;clip-rule:evenodd;stroke-linejoin:round;stroke-miterlimit:2;"><g><path d="M130.608,85.105c3.117,-0.669 6.347,-1.044 9.66,-1.044c3.313,0 6.543,0.37 9.66,1.044l0,-36.398l33.526,-33.526l-13.657,-13.658l-19.869,19.863l0,-21.386l-19.32,0l0,21.386l-19.863,-19.863l-13.658,13.657l33.526,33.526l0,36.398l-0.005,0l0,0.001Z" style="fill:#f0f0f0;fill-rule:nonzero;"/><path d="M193.788,139.632l0,-19.32l-8.654,0c0.669,3.117 1.044,6.347 1.044,9.66c0,3.312 -0.37,6.543 -1.044,9.66l8.654,0Z" style="fill:#f0f0f0;fill-rule:nonzero;"/><path d="M149.928,259.938l0,-21.386l14.473,14.473c-0.136,-2.023 -0.256,-4.058 -0.256,-6.124c0,-6.984 0.816,-13.331 2.284,-19.167l-16.502,-16.502l0,-36.398c-3.117,0.669 -6.347,1.044 -9.66,1.044c-3.312,0 -6.543,-0.37 -9.66,-1.044l0,36.398l-33.526,33.526l13.657,13.658l19.863,-19.863l0,21.386c0.002,-0.001 19.327,-0.001 19.327,-0.001Z" style="fill:#f0f0f0;fill-rule:nonzero;"/><path d="M11.819,159.495l13.657,13.658l33.526,-33.526l36.398,0c-0.669,-3.117 -1.044,-6.347 -1.044,-9.66c0,-3.312 0.37,-6.543 1.044,-9.66l-36.397,0l-33.526,-33.527l-13.657,13.657l19.863,19.863l-21.387,0l0,19.32l21.386,0l-19.863,19.875Z" style="fill:#f0f0f0;fill-rule:nonzero;"/><path d="M28.332,79.845l47.412,-0.212l25.885,25.651c3.514,-5.483 8.142,-10.171 13.592,-13.734l-25.874,-25.64l-0.217,-47.412l-19.32,0.087l0.125,28.093l-15.191,-15.05l-13.597,13.723l15.191,15.05l-28.093,0.125l0.087,19.319Z" style="fill:#f0f0f0;fill-rule:nonzero;"/><path d="M178.907,105.279l14.881,-14.745l0,-38.488c0,-14.849 6.831,-25.047 16.921,-30.073l0.016,-3.383l-19.32,-0.087l-0.218,47.412l-25.874,25.64c5.452,3.558 10.08,8.246 13.594,13.724Z" style="fill:#f0f0f0;fill-rule:nonzero;"/><path d="M165.315,168.393l23.992,23.774c1.463,-1.251 2.915,-2.518 4.476,-3.699l0,-19.064l-14.881,-14.745c-3.509,5.483 -8.137,10.172 -13.587,13.734Z" style="fill:#f0f0f0;fill-rule:nonzero;"/><path d="M75.744,180.31l-47.412,-0.212l-0.087,19.32l28.093,0.125l-15.191,15.05l13.598,13.723l15.191,-15.05l-0.125,28.093l19.32,0.087l0.218,-47.412l25.874,-25.64c-5.444,-3.563 -10.079,-8.251 -13.592,-13.734l-25.887,25.65Z" style="fill:#f0f0f0;fill-rule:nonzero;"/><circle cx="140.268" cy="129.972" r="35.028" style="fill:#f0f0f0;"/><path d="M230.654,70.74l0,70.735l20.102,0l0,-1.849l0,-19.32l0,-1.904l0,-27.32l0,-11.247l0,-9.1c0,-4.634 -0.604,-7.898 -1.523,-10.225c-2.241,-5.689 -6.391,-5.716 -8.528,-5.716c-2.121,0 -6.249,0.027 -8.496,5.64c-0.935,2.338 -1.555,5.623 -1.555,10.306Z" style="fill:#f0f0f0;fill-rule:nonzero;"/><path d="M206.287,58.345l0,137.815c-5.689,3.601 -10.699,8.126 -15.028,13.239c-6.951,8.208 -11.884,18.112 -14.12,29.045c-0.87,4.253 -1.458,8.61 -1.458,13.119c0,0.31 0.044,0.609 0.044,0.914c0.495,35.794 29.627,64.665 65.535,64.665c4.574,0 9.034,-0.473 13.342,-1.365c29.822,-6.157 52.242,-32.564 52.242,-64.208c0,-24.09 -13.027,-45.09 -32.384,-56.49l0,-136.734c0,-16.214 -11.33,-29.752 -26.494,-33.205c-2.442,-0.555 -4.977,-0.876 -7.593,-0.876c-12.793,0 -23.921,7.054 -29.752,17.481c-2.751,4.911 -4.334,10.568 -4.334,16.6Zm34.419,-8.985c11.808,0 15.49,9.573 15.49,21.386l0,144.722c16.23,4.155 24.813,18.205 25.977,32.188c0.141,1.071 0.234,2.154 0.234,3.253c0,22.724 -18.422,41.147 -41.146,41.147c-22.724,0 -41.141,-18.422 -41.141,-41.147c0,-1.104 0.098,-2.192 0.245,-3.269c0.174,-2.154 0.506,-4.237 1.006,-6.244c1.621,-6.511 4.786,-12.216 9.279,-16.644c1.947,-1.92 4.183,-3.519 6.554,-4.944c2.491,-1.496 5.129,-2.785 8.012,-3.666l0,-15.599l0,-1.012l0,-19.32l0,-36.899l0,-1.838l0,-24.851l0,-36.897l0,-8.986c0,-3.769 0.435,-7.256 1.327,-10.329c0.402,-1.392 0.908,-2.681 1.539,-3.862c1.343,-2.507 3.214,-4.487 5.771,-5.716c1.909,-0.919 4.144,-1.473 6.853,-1.473Z" style="fill:#f0f0f0;fill-rule:nonzero;"/><path d="M261.565,277.213c7.946,-9.1 11.661,-20.342 10.622,-31.465c-0.702,-7.533 -15.159,-7.587 -14.452,0c0.87,9.306 -2.007,17.911 -8.648,25.515c-5.422,6.205 7.12,12.085 12.478,5.95Z" style="fill:#f0f0f0;fill-rule:nonzero;"/></g></svg>