<?xml version="1.0" encoding="UTF-8" standalone="no"?><!DOCTYPE svg PUBLIC "-//W3C//DTD SVG 1.1//EN" "http://www.w3.org/Graphics/SVG/1.1/DTD/svg11.dtd"><svg width="100%" height="100%" viewBox="0 0 234 234" version="1.1" xmlns="http://www.w3.org/2000/svg" xmlns:xlink="http://www.w3.org/1999/xlink" xml:space="preserve" xmlns:serif="http://www.serif.com/" style="fill-rule:evenodd;clip-rule:evenodd;stroke-linejoin:round;stroke-miterlimit:2;"><g><path d="M172.247,38.723c-1.193,0 -2.388,0.036 -3.582,0.108c-9.796,-23.143 -33.3,-38.831 -59.221,-38.831c-35.335,0 -64.082,28.178 -64.082,62.813c0,0.122 0,0.243 0.001,0.365c-23.701,1.782 -42.433,21.276 -42.433,44.982c0,24.875 20.625,45.113 45.976,45.113l123.34,0c32.209,0 58.414,-25.694 58.414,-57.275c0.001,-31.582 -26.204,-57.275 -58.413,-57.275Zm0,99.55l-123.34,0c-17.08,0 -30.976,-13.509 -30.976,-30.113c0,-16.605 13.896,-30.115 30.976,-30.115c1.054,0 2.226,0.08 3.687,0.25c2.315,0.274 4.624,-0.55 6.249,-2.222c1.625,-1.671 2.379,-4.003 2.043,-6.31c-0.347,-2.379 -0.523,-4.718 -0.523,-6.951c-0.001,-26.363 22.017,-47.812 49.081,-47.812c21.54,0 40.878,14.036 47.027,34.132c1.102,3.599 4.7,5.828 8.412,5.202c2.42,-0.406 4.897,-0.611 7.363,-0.611c23.938,0 43.414,18.965 43.414,42.275c0.001,23.311 -19.475,42.275 -43.413,42.275Z" style="fill:#f0f0f0;fill-rule:nonzero;"/><path d="M39.601,196.751l21.486,-21.486c2.929,-2.929 2.929,-7.678 0,-10.606c-2.929,-2.929 -7.678,-2.929 -10.606,0l-21.486,21.486c-2.929,2.929 -2.929,7.678 0,10.607c1.464,1.464 3.384,2.197 5.303,2.197c1.919,-0.002 3.838,-0.734 5.303,-2.198Z" style="fill:#f0f0f0;fill-rule:nonzero;"/><path d="M85.439,196.751l21.484,-21.486c2.929,-2.929 2.928,-7.678 -0.001,-10.607c-2.93,-2.929 -7.678,-2.928 -10.607,0.001l-21.484,21.486c-2.929,2.929 -2.928,7.678 0,10.607c1.465,1.464 3.384,2.196 5.303,2.196c1.921,-0.001 3.841,-0.733 5.305,-2.197Z" style="fill:#f0f0f0;fill-rule:nonzero;"/><path d="M131.275,196.751l21.484,-21.486c2.929,-2.929 2.928,-7.678 0,-10.607c-2.93,-2.929 -7.678,-2.928 -10.607,0.001l-21.484,21.486c-2.929,2.929 -2.928,7.678 0,10.607c1.465,1.464 3.384,2.196 5.303,2.196c1.92,-0.001 3.84,-0.733 5.304,-2.197Z" style="fill:#f0f0f0;fill-rule:nonzero;"/><path d="M187.99,164.658l-21.486,21.486c-2.929,2.929 -2.929,7.678 0,10.607c1.464,1.464 3.384,2.197 5.303,2.197c1.919,0 3.839,-0.732 5.303,-2.197l21.486,-21.486c2.929,-2.929 2.929,-7.678 0,-10.606c-2.928,-2.93 -7.677,-2.93 -10.606,-0.001Z" style="fill:#f0f0f0;fill-rule:nonzero;"/><path d="M53.628,199.301l-21.484,21.486c-2.929,2.929 -2.928,7.678 0,10.607c1.465,1.464 3.384,2.196 5.303,2.196c1.92,0 3.839,-0.732 5.304,-2.197l21.484,-21.486c2.929,-2.929 2.928,-7.678 -0.001,-10.607c-2.928,-2.928 -7.677,-2.928 -10.606,0.001Z" style="fill:#f0f0f0;fill-rule:nonzero;"/><path d="M99.599,199.301l-21.484,21.486c-2.929,2.929 -2.928,7.678 0.001,10.607c1.465,1.464 3.384,2.196 5.303,2.196c1.919,0 3.839,-0.732 5.304,-2.197l21.484,-21.486c2.929,-2.929 2.928,-7.678 0,-10.607c-2.931,-2.928 -7.679,-2.928 -10.608,0.001Z" style="fill:#f0f0f0;fill-rule:nonzero;"/><path d="M145.57,199.301l-21.484,21.486c-2.929,2.929 -2.928,7.678 0,10.607c1.465,1.464 3.384,2.196 5.303,2.196c1.919,0 3.839,-0.732 5.304,-2.197l21.484,-21.486c2.929,-2.929 2.928,-7.678 -0.001,-10.607c-2.929,-2.928 -7.677,-2.928 -10.606,0.001Z" style="fill:#f0f0f0;fill-rule:nonzero;"/></g></svg>