<?xml version="1.0" encoding="UTF-8" standalone="no"?><!DOCTYPE svg PUBLIC "-//W3C//DTD SVG 1.1//EN" "http://www.w3.org/Graphics/SVG/1.1/DTD/svg11.dtd"><svg width="100%" height="100%" viewBox="0 0 323 323" version="1.1" xmlns="http://www.w3.org/2000/svg" xmlns:xlink="http://www.w3.org/1999/xlink" xml:space="preserve" xmlns:serif="http://www.serif.com/" style="fill-rule:evenodd;clip-rule:evenodd;stroke-linejoin:round;stroke-miterlimit:2;"><g><path d="M142.62,45.938c6.483,0 12.787,0.756 18.874,2.094c1.936,-4.759 3.068,-10.302 3.068,-16.246c0,0 -9.698,-31.786 -21.658,-31.786l-0.56,0c-11.96,0 -21.658,31.786 -21.658,31.786c0,5.945 1.131,11.487 3.068,16.246c6.079,-1.338 12.383,-2.094 18.866,-2.094Z" style="fill:#f0f0f0;fill-rule:nonzero;"/><path d="M142.898,267.771c11.961,0 21.658,-31.786 21.658,-31.786c0,-5.945 -1.131,-11.487 -3.068,-16.246c-6.086,1.338 -12.39,2.094 -18.874,2.094c-6.483,0 -12.787,-0.756 -18.874,-2.094c-1.936,4.759 -3.068,10.302 -3.068,16.246c0,0 9.698,31.786 21.658,31.786l0.568,0Z" style="fill:#f0f0f0;fill-rule:nonzero;"/><path d="M90.008,224.1c4.03,-4.417 6.875,-9.306 8.654,-14.158c-10.976,-6.369 -20.44,-15.017 -27.756,-25.33c-4.667,2.208 -9.279,5.493 -13.309,9.91c0,0 -14.261,30.013 -5.423,38.079l0.413,0.381c8.834,8.061 37.421,-8.882 37.421,-8.882Z" style="fill:#f0f0f0;fill-rule:nonzero;"/><path d="M70.901,83.158c7.316,-10.312 16.785,-18.961 27.756,-25.33c-1.773,-4.846 -4.618,-9.741 -8.654,-14.158c0,0 -28.588,-16.943 -37.421,-8.882l-0.413,0.381c-8.838,8.061 5.423,38.079 5.423,38.079c4.035,4.416 8.642,7.702 13.309,9.91Z" style="fill:#f0f0f0;fill-rule:nonzero;"/><path d="M200.699,57.382c0,-7.587 1.811,-13.935 4.901,-19.031c-5.912,2.692 -10.372,5.319 -10.372,5.319c-4.03,4.417 -6.875,9.306 -8.654,14.158c5.047,2.932 9.769,6.347 14.12,10.187l0,-10.633l0.005,0Z" style="fill:#f0f0f0;fill-rule:nonzero;"/><path d="M40.518,155.824c5.945,0 11.487,-1.131 16.246,-3.068c-1.338,-6.086 -2.094,-12.39 -2.094,-18.874c0,-6.483 0.756,-12.787 2.094,-18.874c-4.759,-1.936 -10.302,-3.068 -16.246,-3.068c0,0 -31.786,9.698 -31.786,21.658l0,0.56c0,11.973 31.786,21.666 31.786,21.666Z" style="fill:#f0f0f0;fill-rule:nonzero;"/><path d="M82.116,86.242c-7.876,9.992 -13.299,21.968 -15.452,35.066c-0.674,4.101 -1.115,8.284 -1.115,12.581c0,4.291 0.441,8.474 1.115,12.581c2.154,13.097 7.577,25.08 15.452,35.066c5.221,6.625 11.493,12.363 18.585,16.975c8.719,5.668 18.661,9.578 29.338,11.335c4.101,0.674 8.284,1.115 12.581,1.115c4.291,0 8.474,-0.441 12.581,-1.115c10.677,-1.757 20.614,-5.668 29.338,-11.335c6.032,-3.922 11.455,-8.664 16.165,-14.065l0,-2.812l0,-95.496l0,-2.807c-4.705,-5.401 -10.133,-10.144 -16.165,-14.065c-8.719,-5.667 -18.661,-9.578 -29.338,-11.335c-4.101,-0.674 -8.284,-1.115 -12.581,-1.115c-4.291,0 -8.474,0.441 -12.581,1.115c-10.677,1.757 -20.619,5.668 -29.338,11.335c-7.092,4.613 -13.358,10.351 -18.585,16.976Z" style="fill:#f0f0f0;fill-rule:nonzero;"/><path d="M257.668,116.902l0,-40.826c0,-15.947 -7.044,-15.947 -10.051,-15.947c-3.008,0 -10.051,0 -10.051,15.947l0,70.735l20.103,0l0,-29.909l-0.001,0Z" style="fill:#f0f0f0;fill-rule:nonzero;"/><path d="M193.16,221.49c-6.619,10.22 -10.568,22.322 -10.568,35.414c0,36.219 29.36,65.579 65.579,65.579c4.574,0 9.034,-0.473 13.342,-1.365c29.822,-6.162 52.237,-32.569 52.237,-64.214c0,-24.09 -13.027,-45.09 -32.384,-56.49l0,-136.733c0,-16.214 -11.33,-29.752 -26.494,-33.205c-2.442,-0.555 -4.977,-0.876 -7.593,-0.876c-5.891,0 -11.433,1.496 -16.268,4.123c-10.617,5.776 -17.818,17.024 -17.818,29.958l0,137.814c-8.067,5.102 -14.849,11.983 -20.033,19.995Zm54.456,-166.8c11.808,0 15.49,9.573 15.49,21.386l0,144.728c16.23,4.155 24.813,18.199 25.977,32.188c0.141,1.071 0.234,2.154 0.234,3.253c0,22.724 -18.422,41.147 -41.147,41.147c-22.725,0 -41.141,-18.422 -41.141,-41.147c0,-1.104 0.098,-2.192 0.245,-3.269c0.62,-7.68 3.329,-14.473 7.68,-19.88c4.346,-5.412 10.215,-9.491 17.171,-11.607l0,-15.762l0,-51.666l0,-7.239l0,-33.091l0,-37.644c0.001,-11.819 3.683,-21.397 15.491,-21.397Z" style="fill:#f0f0f0;fill-rule:nonzero;"/><path d="M268.796,282.592c8.387,-9.1 12.303,-20.342 11.21,-31.465c-0.74,-7.533 -15.996,-7.588 -15.251,0c0.919,9.306 -2.116,17.911 -9.127,25.515c-5.717,6.206 7.517,12.085 13.168,5.95Z" style="fill:#f0f0f0;fill-rule:nonzero;"/></g></svg>