<?xml version="1.0" encoding="UTF-8" standalone="no"?><!DOCTYPE svg PUBLIC "-//W3C//DTD SVG 1.1//EN" "http://www.w3.org/Graphics/SVG/1.1/DTD/svg11.dtd"><svg width="100%" height="100%" viewBox="0 0 220 220" version="1.1" xmlns="http://www.w3.org/2000/svg" xmlns:xlink="http://www.w3.org/1999/xlink" xml:space="preserve" xmlns:serif="http://www.serif.com/" style="fill-rule:evenodd;clip-rule:evenodd;stroke-linejoin:round;stroke-miterlimit:2;"><g><path d="M109.881,183.46c-4.142,0 -7.5,3.358 -7.5,7.5l0,21.324c0,4.142 3.358,7.5 7.5,7.5c4.143,0 7.5,-3.358 7.5,-7.5l0,-21.324c0,-4.143 -3.358,-7.5 -7.5,-7.5Z" style="fill:#f0f0f0;fill-rule:nonzero;"/><path d="M109.881,36.329c4.143,0 7.5,-3.358 7.5,-7.5l0,-21.326c0,-4.142 -3.357,-7.5 -7.5,-7.5c-4.142,0 -7.5,3.358 -7.5,7.5l0,21.326c0,4.142 3.358,7.5 7.5,7.5Z" style="fill:#f0f0f0;fill-rule:nonzero;"/><path d="M47.269,161.909l-15.084,15.076c-2.93,2.928 -2.931,7.677 -0.003,10.606c1.465,1.465 3.385,2.198 5.305,2.198c1.919,0 3.837,-0.732 5.302,-2.195l15.084,-15.076c2.93,-2.928 2.931,-7.677 0.003,-10.606c-2.93,-2.93 -7.678,-2.93 -10.607,-0.003Z" style="fill:#f0f0f0;fill-rule:nonzero;"/><path d="M167.208,60.067c1.919,0 3.838,-0.732 5.303,-2.196l15.082,-15.076c2.929,-2.929 2.93,-7.677 0.002,-10.607c-2.929,-2.93 -7.677,-2.931 -10.607,-0.001l-15.082,15.076c-2.929,2.928 -2.93,7.677 -0.002,10.606c1.464,1.466 3.384,2.198 5.304,2.198Z" style="fill:#f0f0f0;fill-rule:nonzero;"/><path d="M36.324,109.895c0,-4.142 -3.358,-7.5 -7.5,-7.5l-21.324,0c-4.142,0 -7.5,3.358 -7.5,7.5c0,4.142 3.358,7.5 7.5,7.5l21.324,0c4.142,0 7.5,-3.358 7.5,-7.5Z" style="fill:#f0f0f0;fill-rule:nonzero;"/><path d="M212.286,102.395l-21.334,0c-4.143,0 -7.5,3.358 -7.5,7.5c0,4.142 3.357,7.5 7.5,7.5l21.334,0c4.143,0 7.5,-3.358 7.5,-7.5c0,-4.141 -3.357,-7.5 -7.5,-7.5Z" style="fill:#f0f0f0;fill-rule:nonzero;"/><path d="M47.267,57.871c1.464,1.464 3.384,2.196 5.303,2.196c1.919,0 3.839,-0.732 5.303,-2.196c2.929,-2.929 2.929,-7.678 0,-10.607l-15.076,-15.076c-2.929,-2.929 -7.678,-2.929 -10.606,0c-2.929,2.929 -2.929,7.678 0,10.606l15.076,15.077Z" style="fill:#f0f0f0;fill-rule:nonzero;"/><path d="M172.52,161.911c-2.929,-2.929 -7.678,-2.93 -10.607,-0.001c-2.93,2.929 -2.93,7.678 -0.001,10.606l15.074,15.076c1.465,1.465 3.384,2.197 5.304,2.197c1.919,0 3.839,-0.732 5.303,-2.196c2.93,-2.929 2.93,-7.678 0.001,-10.606l-15.074,-15.076Z" style="fill:#f0f0f0;fill-rule:nonzero;"/><path d="M109.889,51.518c-32.187,0 -58.373,26.188 -58.373,58.377c0,32.188 26.186,58.375 58.373,58.375c32.19,0 58.378,-26.187 58.378,-58.375c0,-32.189 -26.189,-58.377 -58.378,-58.377Zm0,101.752c-23.916,0 -43.373,-19.458 -43.373,-43.375c0,-23.918 19.457,-43.377 43.373,-43.377c23.919,0 43.378,19.459 43.378,43.377c0,23.917 -19.459,43.375 -43.378,43.375Z" style="fill:#f0f0f0;fill-rule:nonzero;"/></g></svg>